<svg aria-hidden="true" style="position: absolute; width: 0; height: 0; overflow: hidden;" version="1.1" xmlns="http://www.w3.org/2000/svg" xmlns:xlink="http://www.w3.org/1999/xlink">
<defs>
<symbol id="icon-read-journey-1" viewBox="0 0 304 32">
<path fill="#f9f9f9" style="fill: var(--color1, #f9f9f9)" d="M21.929 29.376h-6.13l-5.801-9.998h-4.32v9.998h-5.678v-28.8h11.52q3.991 0 6.789 2.798t2.798 6.747q0 2.674-1.522 4.978c-1.002 1.484-2.368 2.652-3.972 3.39l-0.060 0.025zM11.52 5.883h-5.842v8.517h5.842q1.605 0 2.757-1.234c0.715-0.778 1.153-1.82 1.153-2.965 0-0.028-0-0.056-0.001-0.084l0 0.004q0-1.769-1.152-3.003t-2.757-1.234zM31.771 17.486v6.459h12.137v5.431h-17.813v-28.8h17.609v5.431h-11.934v6.13h10.903v5.349zM73.863 29.376h-6.171l-1.728-5.184h-11.479l-1.728 5.184h-6.13l10.080-28.8h7.035zM60.245 7.118l-3.95 11.767h7.899zM77.481 0.576h11.438q5.925 0 9.874 4.155 3.991 4.114 3.991 10.245t-3.991 10.245q-3.95 4.155-9.874 4.155h-11.438zM83.159 23.945h5.76q3.744 0 6.089-2.469 2.345-2.551 2.345-6.501 0-3.991-2.345-6.459-2.345-2.51-6.089-2.51h-5.76zM126.93 29.952q-6.789 0-9.504-5.472l4.896-2.798q1.358 2.715 4.608 2.715 2.222 0 3.333-1.029 1.152-1.070 1.152-2.962v-19.831h5.637v19.831q0 4.526-2.839 7.035-2.798 2.51-7.282 2.51zM167.223 25.632q-4.361 4.32-10.615 4.32t-10.615-4.32q-4.32-4.402-4.32-10.656 0-6.295 4.32-10.615 4.361-4.361 10.615-4.361t10.615 4.361q4.361 4.32 4.361 10.615t-4.361 10.656zM149.984 21.765q2.633 2.633 6.624 2.633t6.624-2.633q2.674-2.674 2.674-6.789t-2.674-6.789-6.624-2.674-6.624 2.674-2.674 6.789 2.674 6.789zM186.935 29.952q-4.814 0-7.899-2.715t-3.086-7.282v-19.378h5.637v18.926q0 2.304 1.317 3.621 1.358 1.275 4.032 1.275t3.991-1.275q1.358-1.317 1.358-3.621v-18.926h5.678v19.378q0 4.567-3.086 7.282t-7.941 2.715zM225.829 29.376h-6.13l-5.801-9.998h-4.32v9.998h-5.678v-28.8h11.52q3.991 0 6.789 2.798t2.798 6.747q0 2.674-1.522 4.978c-1.002 1.484-2.368 2.652-3.972 3.39l-0.060 0.025zM215.419 5.883h-5.842v8.517h5.842q1.605 0 2.757-1.234c0.715-0.778 1.153-1.82 1.153-2.965 0-0.028-0-0.056-0.001-0.084l0 0.004q0-1.769-1.152-3.003t-2.757-1.234zM246.658 18.144v-17.568h5.678v28.8h-4.32l-12.343-17.609v17.609h-5.678v-28.8h4.32zM264.178 17.486v6.459h12.137v5.431h-17.815v-28.8h17.609v5.431h-11.931v6.13h10.903v5.349zM297.515 0.576h6.418l-9.874 17.568v11.232h-5.637v-11.232l-9.833-17.568h6.418l6.254 12.014z"></path>
</symbol>
<symbol id="icon-Logo-1" viewBox="0 0 79 32">
<path fill="#f9f9f9" style="fill: var(--color1, #f9f9f9)" d="M0 20.706v-20.706h24.264c3.3 0 6.513 1.050 9.173 3 1.578 1.164 2.833 2.679 3.663 4.434l0.030 0.071 2.807 6.033c1.195-2.886 2.555-5.365 4.146-7.672l-0.089 0.137 0.139-0.203q0.696-1.020 1.579-1.884l1.195-1.167c0.757-0.742 1.661-1.337 2.663-1.737l0.055-0.019 0.104-0.041c1.497-0.601 3.232-0.949 5.048-0.951h24.283v20.706zM0 24.471h79.059v7.529h-79.059z"></path>
</symbol>
</defs>
</svg>
